<?xml version="1.0" encoding="utf-8"?>
<!-- Generator: Adobe Illustrator 22.1.0, SVG Export Plug-In . SVG Version: 6.00 Build 0)  -->
<svg version="1.0" id="laribo" xmlns="http://www.w3.org/2000/svg" xmlns:xlink="http://www.w3.org/1999/xlink" x="0px" y="0px"
	 width="358.28613px" height="180.05298px" viewBox="0 0 358.28613 180.05298" enable-background="new 0 0 358.28613 180.05298"
	 xml:space="preserve">
<path id="shape" d="M285.04785,73.19385c2.63574,2.92969,5.85645,5.24316,9.66504,6.94141
	c3.80664,1.69824,8.1416,2.54785,13.00391,2.54785c4.86133,0,9.19531-0.84961,13.00391-2.54785
	c3.80664-1.69824,7.0293-4.01172,9.66504-6.94141c2.63574-2.92822,4.65625-6.38379,6.0625-10.36768
	c1.40625-3.98291,2.1084-8.229,2.1084-12.74072c0-4.62646-0.70215-8.96191-2.1084-13.00342
	c-1.40625-4.04199-3.42676-7.55664-6.0625-10.54395s-5.8584-5.32959-9.66504-7.02881
	c-3.80859-1.69824-8.14258-2.54834-13.00391-2.54834c-4.8623,0-9.19727,0.8501-13.00391,2.54834
	c-3.80859,1.69922-7.0293,4.0415-9.66504,7.02881s-4.65625,6.50195-6.0625,10.54395c-1.40625,4.0415-2.1084,8.37695-2.1084,13.00342
	c0,4.51172,0.70215,8.75781,2.1084,12.74072C280.3916,66.81006,282.41211,70.26562,285.04785,73.19385z M291.59375,42.09033
	c0.61523-2.57715,1.5957-4.87646,2.94336-6.89746c1.34668-2.021,3.10449-3.63135,5.27246-4.83252
	c2.16602-1.2002,4.80176-1.80127,7.90723-1.80127c3.10449,0,5.74023,0.60107,7.9082,1.80127
	c2.16602,1.20117,3.92285,2.81152,5.27148,4.83252c1.34668,2.021,2.32812,4.32031,2.94336,6.89746
	c0.61523,2.57812,0.92285,5.24268,0.92285,7.99512c0,2.63623-0.30762,5.19922-0.92285,7.68848
	c-0.61523,2.49023-1.59668,4.73096-2.94336,6.72119c-1.34863,1.99219-3.10547,3.58887-5.27148,4.78857
	c-2.16797,1.20166-4.80371,1.80127-7.9082,1.80127c-3.10547,0-5.74121-0.59961-7.90723-1.80127
	c-2.16797-1.19971-3.92578-2.79639-5.27246-4.78857c-1.34766-1.99023-2.32812-4.23096-2.94336-6.72119
	c-0.61523-2.48926-0.92285-5.05225-0.92285-7.68848C290.6709,47.33301,290.97852,44.66846,291.59375,42.09033z M19.72949,161.59839
	h318.82715V89.1521H19.72949V161.59839z M288.21777,107.60669h19.16211c1.59277,0,3.02734,0.25732,4.30469,0.77148
	c1.27734,0.51465,2.37207,1.21924,3.28516,2.11523c0.91211,0.896,1.60938,1.94092,2.09082,3.13574
	c0.48047,1.19434,0.72168,2.45557,0.72168,3.78271c0,2.09033-0.44043,3.89893-1.31934,5.4248
	c-0.87891,1.52686-2.31445,2.68799-4.30469,3.48438v0.09912c0.96191,0.26611,1.75781,0.67236,2.38867,1.21973
	c0.62988,0.54736,1.14453,1.20312,1.54297,1.96582c0.39844,0.76367,0.68848,1.58496,0.87109,2.46387
	c0.18164,0.87939,0.30664,1.76709,0.37305,2.6626c0.0332,0.56494,0.06641,1.22803,0.09961,1.99121
	c0.0332,0.76367,0.09082,1.53516,0.17383,2.31445c0.08301,0.77979,0.21582,1.53516,0.39844,2.26416
	c0.18262,0.73047,0.45605,1.34424,0.82129,1.8418h-7.81445c-0.23242-0.56396-0.40625-1.18604-0.52246-1.86621
	s-0.21582-1.39404-0.29883-2.14062s-0.14844-1.50928-0.19824-2.28955c-0.0498-0.77881-0.125-1.51807-0.22461-2.21484
	c-0.26562-1.85791-0.8291-3.21777-1.69238-4.08105c-0.86328-0.8623-2.27246-1.29395-4.23047-1.29395h-7.81445v13.88623h-7.81348
	V107.60669z M255.96582,107.60669h26.57812v6.56982H263.7793v7.61523h17.22168v6.07227H263.7793v8.70996h19.16309v6.56982h-26.97656
	V107.60669z M242.85059,131.14868c-0.61426-0.59717-1.41797-1.10254-2.41406-1.51807
	c-0.99512-0.41455-2.12305-0.7627-3.38379-1.04492c-1.26172-0.28174-2.53906-0.60547-3.83301-0.9707
	c-1.32715-0.33154-2.62109-0.73828-3.88184-1.21924c-1.26172-0.48096-2.38965-1.10303-3.38477-1.8667
	c-0.99512-0.7627-1.7998-1.7085-2.41406-2.83691c-0.61426-1.12793-0.9209-2.52148-0.9209-4.18115
	c0-1.82422,0.38965-3.40918,1.16992-4.75293c0.7793-1.34375,1.7998-2.46387,3.06152-3.35986
	c1.25977-0.89551,2.6875-1.55908,4.28027-1.99072c1.59277-0.43066,3.18555-0.64697,4.77734-0.64697
	c1.8584,0,3.6416,0.20752,5.35059,0.62207c1.70898,0.41553,3.22656,1.0874,4.55469,2.01562
	c1.32617,0.92969,2.37988,2.11572,3.16016,3.55908c0.7793,1.44336,1.16992,3.19385,1.16992,5.25098h-7.56543
	c-0.06641-1.06201-0.29102-1.94141-0.67188-2.63818c-0.38184-0.69678-0.8877-1.24414-1.51855-1.64258
	c-0.62988-0.39795-1.36035-0.67969-2.18945-0.84619c-0.83008-0.16553-1.70898-0.24854-2.6377-0.24854
	c-0.63086,0-1.26172,0.06689-1.8916,0.19873c-0.63086,0.1333-1.20312,0.36572-1.7168,0.69727
	c-0.51562,0.33203-0.93848,0.75488-1.26953,1.26904c-0.33203,0.51465-0.49805,1.13672-0.49805,1.86621
	c0,0.69678,0.13281,1.26172,0.39844,1.69238c0.26562,0.43164,0.78809,0.82129,1.56738,1.16943
	c0.7793,0.34863,1.8584,0.71436,3.23535,1.09521c1.37695,0.38184,3.17676,0.85449,5.40039,1.41846
	c0.43066,0.09961,0.99609,0.24121,1.69238,0.42334c0.69727,0.18262,1.43457,0.43115,2.21484,0.74658
	c0.7793,0.31543,1.55957,0.72168,2.33887,1.21924s1.49316,1.11182,2.14062,1.84131c0.64746,0.73047,1.16992,1.60156,1.56836,2.61328
	c0.39746,1.0127,0.59668,2.18213,0.59668,3.50879c0,1.62646-0.31543,3.13574-0.94531,4.5293
	c-0.63086,1.39355-1.56836,2.59668-2.8125,3.6084c-1.24414,1.0127-2.78711,1.80908-4.62891,2.38916
	s-3.97363,0.87109-6.39551,0.87109c-1.95801,0-3.85742-0.24902-5.69922-0.74658c-1.84082-0.49756-3.45898-1.26074-4.85254-2.28955
	c-1.39355-1.02832-2.51367-2.33936-3.35938-3.93213c-0.84668-1.59277-1.25293-3.48389-1.21973-5.67383h7.56543
	c0,1.19434,0.21582,2.20703,0.64746,3.03613c0.43066,0.82959,1.00293,1.50146,1.7168,2.01562
	c0.71289,0.51465,1.54297,0.896,2.48828,1.14502c0.94629,0.24854,1.94922,0.37305,3.01172,0.37305
	c0.69629,0,1.44336-0.05762,2.23926-0.17432c0.79688-0.11572,1.54297-0.33984,2.24023-0.67188
	c0.69629-0.33105,1.27637-0.7876,1.74219-1.36865c0.46387-0.58008,0.69629-1.31885,0.69629-2.21484
	C243.77148,132.52612,243.46484,131.74585,242.85059,131.14868z M199.27637,107.60669h8.01367l13.28906,35.53711h-8.11328
	l-2.6875-7.91357h-13.28906l-2.78711,7.91357h-7.91504L199.27637,107.60669z M158.06543,107.60669h7.81445v28.96729h17.32031
	v6.56982h-25.13477V107.60669z M132.75586,129.5061c-0.51465-0.69678-1.16895-1.20215-1.96582-1.51807
	c-0.7959-0.31494-1.66699-0.49756-2.61328-0.54736c-0.94531-0.0498-1.84961-0.07471-2.71191-0.07471v-4.97705
	c0.7627,0.06689,1.5752,0.06689,2.43848,0c0.8623-0.06592,1.66699-0.25684,2.41406-0.57227
	c0.74609-0.31494,1.36035-0.77148,1.8418-1.36914c0.48047-0.59717,0.72168-1.39355,0.72168-2.38867
	c0-1.49316-0.49805-2.63818-1.49316-3.43457c-0.99609-0.79639-2.14062-1.19434-3.43457-1.19434
	c-1.79199,0-3.14453,0.58936-4.05664,1.76709c-0.91309,1.17822-1.35254,2.6626-1.31836,4.45459h-6.71973
	c0.06641-1.79199,0.38965-3.42578,0.9707-4.90283c0.58008-1.47607,1.39355-2.74512,2.43848-3.80762
	c1.0459-1.06152,2.29785-1.88281,3.75781-2.46338s3.08594-0.87109,4.87793-0.87109c1.39355,0,2.78711,0.20752,4.18066,0.62207
	c1.39355,0.41504,2.64551,1.0376,3.75781,1.86621c1.11133,0.83008,2.01562,1.8418,2.71289,3.03613
	c0.69629,1.19482,1.04492,2.57178,1.04492,4.13135c0,1.65967-0.40625,3.14404-1.21973,4.45459
	c-0.81348,1.31104-2.03223,2.19824-3.6582,2.6626v0.09961c1.9248,0.43164,3.43457,1.36865,4.5293,2.81201
	c1.0957,1.44336,1.64258,3.14453,1.64258,5.10156c0,1.82568-0.35645,3.45166-1.07031,4.87793
	c-0.71387,1.42725-1.66699,2.62158-2.86133,3.5835c-1.19434,0.96289-2.57227,1.70068-4.13086,2.21484
	c-1.56055,0.51416-3.18555,0.77148-4.87793,0.77148c-1.95801,0-3.74121-0.28223-5.35059-0.84619s-2.97852-1.39355-4.10645-2.48828
	c-1.12793-1.09521-1.99902-2.43066-2.6123-4.00684c-0.61523-1.57568-0.90527-3.35986-0.87109-5.35059h6.71875
	c0.0332,0.96289,0.18164,1.85889,0.44824,2.68799c0.26465,0.82959,0.64648,1.55127,1.14453,2.16504
	c0.49805,0.61426,1.12012,1.10352,1.86621,1.46826c0.74707,0.36523,1.63379,0.54736,2.66309,0.54736
	c1.59277,0,2.93652-0.49756,4.03125-1.49316c1.0957-0.99561,1.64258-2.32227,1.64258-3.98193
	C133.52734,131.21558,133.27051,130.20288,132.75586,129.5061z M82.61133,107.60669h7.81445v14.73242l13.88672-14.73242h9.75488
	l-13.88574,14.03564l15.22949,21.50146h-9.80469l-10.70117-15.97705l-4.47949,4.5293v11.44775h-7.81445V107.60669z
	 M39.45898,107.60669h11l8.31152,24.43799h0.09961l7.86426-24.43799h11v35.53711h-7.31641v-25.18457h-0.09961L61.6084,143.1438
	h-6.02246L46.875,118.20825h-0.09863v24.93555h-7.31738V107.60669z M203.25684,116.36646h-0.09766l-4.62891,13.04004h9.20703
	L203.25684,116.36646z M85.57324,67.21924h23.45996l4.74414,13.97021h14.32227l-23.45996-62.73486H90.49316L66.68262,81.18945
	h13.9707L85.57324,67.21924z M97.34668,33.91895h0.17578l7.9082,23.02002H89.17578L97.34668,33.91895z M308.59961,122.48853
	c0.91211-0.79639,1.36816-2.09033,1.36816-3.88232c0-1.7251-0.45605-2.97754-1.36816-3.75781
	c-0.91309-0.7793-2.24902-1.16943-4.00684-1.16943h-8.56152v10.00391h8.56152
	C306.35059,123.68286,307.68652,123.28491,308.59961,122.48853z M64.10059,69.59131H33.52441V18.45459H19.72949v62.73486h44.37109
	V69.59131z M146.50684,56.67529h13.79395c3.45605,0,5.94434,0.76221,7.46875,2.28467c1.52246,1.52393,2.51758,3.9248,2.9873,7.20459
	c0.17578,1.23047,0.30762,2.53467,0.39551,3.91016c0.08789,1.37695,0.2041,2.72363,0.35156,4.0415
	c0.14551,1.31836,0.32129,2.57861,0.52734,3.77832c0.2041,1.20117,0.51172,2.2998,0.92188,3.29492h13.79492
	c-0.64551-0.87842-1.12891-1.96191-1.4502-3.25098c-0.32227-1.2876-0.55664-2.62061-0.70215-3.99756
	c-0.14746-1.37598-0.25-2.73779-0.30762-4.08594c-0.05957-1.34668-0.11816-2.51758-0.17578-3.51465
	c-0.11816-1.58154-0.33789-3.14795-0.65918-4.70068c-0.32227-1.55127-0.83496-3.00098-1.53809-4.34912
	c-0.70215-1.34668-1.61133-2.50391-2.72363-3.4707c-1.11328-0.96631-2.51855-1.68311-4.2168-2.15234V51.4917
	c3.51465-1.40625,6.04688-3.45557,7.59961-6.15088c1.55176-2.69336,2.32812-5.88672,2.32812-9.57715
	c0-2.3418-0.4248-4.56885-1.27344-6.67725c-0.84961-2.10889-2.08008-3.9541-3.69043-5.53564
	c-1.61133-1.58154-3.54492-2.8252-5.79883-3.73438c-2.25586-0.90723-4.78906-1.36182-7.60059-1.36182h-33.82715v62.73486h13.79492
	V56.67529z M146.50684,29.17432h15.1123c3.10352,0,5.46094,0.68896,7.07324,2.06445
	c1.61035,1.37695,2.41602,3.58887,2.41602,6.63379c0,3.16309-0.80566,5.44775-2.41602,6.85352
	c-1.6123,1.40576-3.96973,2.10889-7.07324,2.10889h-15.1123V29.17432z M258.35547,80.13525
	c2.66504-0.70312,5.03711-1.78613,7.11719-3.25098c2.07812-1.46387,3.73438-3.35254,4.96387-5.66748
	c1.23047-2.31299,1.8457-5.05225,1.8457-8.21533c0-3.92334-0.95312-7.27734-2.85547-10.06006
	c-1.9043-2.78174-4.78906-4.72949-8.65527-5.84326c2.75293-1.34668,4.86133-3.08887,6.32715-5.22754
	c1.46289-2.1377,2.19629-4.7583,2.19629-7.86377c0-2.92871-0.4834-5.38867-1.4502-7.38086
	c-0.96582-1.99072-2.32812-3.5874-4.08496-4.78857c-1.75781-1.19971-3.86621-2.06494-6.32617-2.5918
	c-2.46094-0.52734-5.18457-0.79102-8.17188-0.79102h-29.52246v62.73486h30.40137
	C252.95215,81.18945,255.68945,80.83789,258.35547,80.13525z M233.53418,29.17432h12.91602
	c1.23047,0,2.41602,0.10254,3.55859,0.30713c1.14258,0.20605,2.15234,0.57129,3.03125,1.09863
	c0.87891,0.52686,1.58105,1.26025,2.1084,2.19629c0.52734,0.93799,0.79102,2.13916,0.79102,3.60254
	c0,2.63574-0.79102,4.54004-2.37207,5.71143c-1.58203,1.17236-3.60254,1.75684-6.0625,1.75684h-13.9707V29.17432z
	 M233.53418,70.47021V53.24902h15.02441c2.9873,0,5.38867,0.68896,7.20508,2.06445c1.81543,1.37695,2.72363,3.67676,2.72363,6.89746
	c0,1.64062-0.27832,2.9873-0.83496,4.0415c-0.55664,1.05469-1.30371,1.88916-2.24023,2.50439
	c-0.9375,0.61475-2.02051,1.0542-3.25098,1.31787c-1.22949,0.26367-2.51855,0.39551-3.86621,0.39551H233.53418z M208.60742,18.45459
	H194.8125v62.73486h13.79492V18.45459z"/>
<g>
</g>
<g>
</g>
<g>
</g>
<g>
</g>
<g>
</g>
<g>
</g>
</svg>
